<svg width="300" height="200" viewBox="0 0 300 200" xmlns="http://www.w3.org/2000/svg">
  <defs>
    <radialGradient id="plateGrad2" cx="50%" cy="50%" r="60%">
      <stop offset="0%" style="stop-color:#FFFFFF"/>
      <stop offset="100%" style="stop-color:#F0F0F0"/>
    </radialGradient>
    <linearGradient id="salmonGrad" x1="0%" y1="0%" x2="100%" y2="100%">
      <stop offset="0%" style="stop-color:#FF8A80"/>
      <stop offset="50%" style="stop-color:#FF6B5A"/>
      <stop offset="100%" style="stop-color:#E85749"/>
    </linearGradient>
    <linearGradient id="riceGrad" x1="0%" y1="0%" x2="100%" y2="100%">
      <stop offset="0%" style="stop-color:#FFFFFF"/>
      <stop offset="100%" style="stop-color:#F5F5F5"/>
    </linearGradient>
  </defs>

  <!-- Background -->
  <rect width="300" height="200" fill="#F8F8F8"/>

  <!-- Wooden board -->
  <rect x="30" y="60" width="240" height="120" rx="10" fill="#8D6E63" opacity="0.8"/>
  <rect x="35" y="65" width="230" height="110" rx="8" fill="#A1887F"/>

  <!-- Sushi pieces -->
  <!-- Salmon nigiri -->
  <g transform="translate(60, 100)">
    <ellipse cx="0" cy="15" rx="25" ry="12" fill="url(#riceGrad)"/>
    <ellipse cx="0" cy="8" rx="28" ry="8" fill="url(#salmonGrad)"/>
    <path d="M-20 8 Q0 5 20 8" fill="none" stroke="#CC4A3C" stroke-width="1" opacity="0.7"/>
  </g>

  <!-- Tuna nigiri -->
  <g transform="translate(150, 95)">
    <ellipse cx="0" cy="15" rx="25" ry="12" fill="url(#riceGrad)"/>
    <ellipse cx="0" cy="8" rx="28" ry="8" fill="#C62828"/>
    <path d="M-20 8 Q0 5 20 8" fill="none" stroke="#8D1818" stroke-width="1" opacity="0.7"/>
  </g>

  <!-- Yellowtail nigiri -->
  <g transform="translate(240, 105)">
    <ellipse cx="0" cy="15" rx="25" ry="12" fill="url(#riceGrad)"/>
    <ellipse cx="0" cy="8" rx="28" ry="8" fill="#FFD54F"/>
    <path d="M-20 8 Q0 5 20 8" fill="none" stroke="#F9A825" stroke-width="1" opacity="0.7"/>
  </g>

  <!-- Maki roll slices -->
  <g transform="translate(80, 140)">
    <!-- Roll 1 -->
    <circle cx="0" cy="0" r="15" fill="#2E2E2E"/>
    <circle cx="0" cy="0" r="12" fill="url(#riceGrad)"/>
    <circle cx="0" cy="0" r="6" fill="#FF6B5A"/>
    <circle cx="0" cy="0" r="3" fill="#4CAF50"/>

    <!-- Roll 2 -->
    <circle cx="40" cy="0" r="15" fill="#2E2E2E"/>
    <circle cx="40" cy="0" r="12" fill="url(#riceGrad)"/>
    <circle cx="40" cy="0" r="6" fill="#FF8A65"/>
    <circle cx="40" cy="0" r="3" fill="#81C784"/>

    <!-- Roll 3 -->
    <circle cx="80" cy="0" r="15" fill="#2E2E2E"/>
    <circle cx="80" cy="0" r="12" fill="url(#riceGrad)"/>
    <circle cx="80" cy="0" r="6" fill="#FFB74D"/>
    <circle cx="80" cy="0" r="3" fill="#A5D6A7"/>
  </g>

  <!-- Wasabi -->
  <ellipse cx="70" cy="165" rx="8" ry="6" fill="#7CB342"/>

  <!-- Ginger -->
  <path d="M200 160 Q210 155 220 160 Q215 170 200 165" fill="#FFE0B2"/>

  <!-- Soy sauce dish -->
  <ellipse cx="250" cy="160" rx="15" ry="8" fill="#3E2723" opacity="0.8"/>
</svg>