<svg width="300" height="200" viewBox="0 0 300 200" xmlns="http://www.w3.org/2000/svg">
  <defs>
    <radialGradient id="plateGrad3" cx="50%" cy="50%" r="60%">
      <stop offset="0%" style="stop-color:#FFFFFF"/>
      <stop offset="100%" style="stop-color:#F0F0F0"/>
    </radialGradient>
    <linearGradient id="waguyuGrad" x1="0%" y1="0%" x2="100%" y2="100%">
      <stop offset="0%" style="stop-color:#8B0000"/>
      <stop offset="30%" style="stop-color:#A52A2A"/>
      <stop offset="60%" style="stop-color:#DC143C"/>
      <stop offset="100%" style="stop-color:#B22222"/>
    </linearGradient>
    <radialGradient id="sauceGrad" cx="50%" cy="50%" r="60%">
      <stop offset="0%" style="stop-color:#8B4513"/>
      <stop offset="100%" style="stop-color:#654321"/>
    </radialGradient>
  </defs>

  <!-- Background -->
  <rect width="300" height="200" fill="#F8F8F8"/>

  <!-- Plate -->
  <ellipse cx="150" cy="150" rx="130" ry="30" fill="url(#plateGrad3)" stroke="#E0E0E0" stroke-width="1"/>

  <!-- Plate rim highlight -->
  <ellipse cx="150" cy="145" rx="125" ry="25" fill="none" stroke="#F8F8F8" stroke-width="2"/>

  <!-- Wagyu slices -->
  <g transform="translate(80, 100)">
    <!-- Main piece -->
    <ellipse cx="40" cy="25" rx="35" ry="20" fill="url(#waguyuGrad)"/>
    <path d="M10 25 Q25 15 40 18 Q55 15 70 25 Q55 35 40 32 Q25 35 10 25"
          fill="url(#waguyuGrad)" opacity="0.9"/>

    <!-- Fat marbling -->
    <path d="M20 22 Q30 20 35 25 Q40 22 50 24" fill="#FFE4E1" opacity="0.8" stroke="none"/>
    <path d="M25 28 Q35 26 45 30" fill="#FFE4E1" opacity="0.6" stroke="none"/>

    <!-- Seared edges -->
    <path d="M10 25 Q25 15 40 18 Q55 15 70 25" fill="none" stroke="#4A0000" stroke-width="2" opacity="0.7"/>
    <path d="M10 25 Q25 35 40 32 Q55 35 70 25" fill="none" stroke="#4A0000" stroke-width="2" opacity="0.7"/>

    <!-- Additional smaller piece -->
    <ellipse cx="100" cy="35" rx="20" ry="12" fill="url(#waguyuGrad)"/>
    <path d="M85 32 Q92 28 100 30 Q108 28 115 32" fill="#FFE4E1" opacity="0.6"/>
  </g>

  <!-- Ponzu sauce drops -->
  <ellipse cx="120" cy="140" rx="8" ry="4" fill="url(#sauceGrad)" opacity="0.8"/>
  <ellipse cx="200" cy="145" rx="6" ry="3" fill="url(#sauceGrad)" opacity="0.6"/>

  <!-- Microgreens -->
  <g transform="translate(160, 120)">
    <path d="M0 0 L2 -8 L1 -12" stroke="#4CAF50" stroke-width="1" fill="none"/>
    <path d="M5 2 L7 -6 L6 -10" stroke="#4CAF50" stroke-width="1" fill="none"/>
    <path d="M10 1 L12 -7 L11 -11" stroke="#4CAF50" stroke-width="1" fill="none"/>
    <circle cx="1" cy="-12" r="1" fill="#66BB6A"/>
    <circle cx="6" cy="-10" r="1" fill="#66BB6A"/>
    <circle cx="11" cy="-11" r="1" fill="#66BB6A"/>
  </g>

  <!-- Additional microgreens -->
  <g transform="translate(210, 125)">
    <path d="M0 0 L1 -6 L0 -9" stroke="#4CAF50" stroke-width="1" fill="none"/>
    <path d="M3 1 L4 -5 L3 -8" stroke="#4CAF50" stroke-width="1" fill="none"/>
    <circle cx="0" cy="-9" r="0.8" fill="#66BB6A"/>
    <circle cx="3" cy="-8" r="0.8" fill="#66BB6A"/>
  </g>

  <!-- Sesame seeds -->
  <circle cx="140" cy="130" r="1" fill="#F4E4BC"/>
  <circle cx="185" cy="135" r="1" fill="#F4E4BC"/>
  <circle cx="165" cy="140" r="1" fill="#F4E4BC"/>

  <!-- Plate reflection -->
  <ellipse cx="150" cy="140" rx="100" ry="15" fill="#FFFFFF" opacity="0.3"/>
</svg>